HIERARCHY
ROOT ui
{
	 OFFSET 0 0 0
	 CHANNELS 3 XPosition YPosition Z Position
	 EndSite
	 {
	 OFFSET 0 -1 0
	 }
}
ROOT li
{
	 OFFSET 0 0 0
	 CHANNELS 3 XPosition YPosition Z Position
	 EndSite
	 {
	 OFFSET 0 -1 0
	 }
}
ROOT ul
{
	 OFFSET 0 0 0
	 CHANNELS 3 XPosition YPosition Z Position
	 EndSite
	 {
	 OFFSET 0 -1 0
	 }
}
ROOT ll
{
	 OFFSET 0 0 0
	 CHANNELS 3 XPosition YPosition Z Position
	 EndSite
	 {
	 OFFSET 0 -1 0
	 }
}
ROOT tt
{
	 OFFSET 0 0 0
	 CHANNELS 3 XPosition YPosition Z Position
	 EndSite
	 {
	 OFFSET 0 -1 0
	 }
}
ROOT tb
{
	 OFFSET 0 0 0
	 CHANNELS 3 XPosition YPosition Z Position
	 EndSite
	 {
	 OFFSET 0 -1 0
	 }
}
ROOT td
{
	 OFFSET 0 0 0
	 CHANNELS 3 XPosition YPosition Z Position
	 EndSite
	 {
	 OFFSET 0 -1 0
	 }
}
ROOT v
{
	 OFFSET 0 0 0
	 CHANNELS 3 XPosition YPosition Z Position
	 EndSite
	 {
	 OFFSET 0 -1 0
	 }
}
ROOT bn
{
	 OFFSET 0 0 0
	 CHANNELS 3 XPosition YPosition Z Position
	 EndSite
	 {
	 OFFSET 0 -1 0
	 }
}
MOTION
Frames: 19
Frame Time: 0.002
0.003167454957962036	0.0012761820554733276	0		0.465307373046875	-2.29676220703125	0		-1.0387847900390625	0.012018500328063965	0		-0.7665309448242188	-2.267790771484375	0		1.54911669921875	-0.6297402954101563	0		3.32850244140625	-0.11224322509765625	0		4.6037060546875	0.07480657958984376	0		5.63911083984375	0.12881071472167968	0		-0.2837784118652344	5.883255859375	0		
0.07155180358886719	2.7623599767684934E-4	0		0.5006004638671875	-2.303558349609375	0		-1.039372802734375	0.015490560531616212	0		-0.7552107543945312	-2.27040283203125	0		1.5385206298828125	-0.6252630004882812	0		3.35199560546875	-0.09602799224853516	0		4.591142578125	0.08123100280761719	0		5.6376552734375	0.15213487243652343	0		-0.27220529174804686	5.8906328125	0		
0.0071477022171020504	0.013159285545349121	0		0.4821941833496094	-2.2829853515625	0		-0.9688706665039063	0.01351984691619873	0		-0.7676880493164062	-2.260839599609375	0		1.589041015625	-0.6221631469726563	0		3.3385166015625	-0.09455299377441406	0		4.58966455078125	0.08160377502441406	0		5.6191298828125	0.1455897216796875	0		-0.29261083984375	5.8822373046875	0		
0.05280745697021484	0.008352160453796387	0		0.49876339721679686	-2.29361328125	0		-0.9772031860351562	0.010087904930114746	0		-0.7760785522460938	-2.26527587890625	0		1.538681884765625	-0.6273782348632813	0		3.298083984375	-0.11287276458740235	0		4.58131689453125	0.07505070495605469	0		5.6207607421875	0.13594351196289062	0		-0.26374603271484376	5.8885478515625	0		
0.005663674831390381	1.8353499472141267E-4	0		0.4765890502929688	-2.298955810546875	0		-0.98129541015625	0.009659220695495605	0		-0.735299560546875	-2.27800390625	0		1.5725357666015625	-0.6341104125976562	0		3.310982421875	-0.11450527954101562	0		4.5712822265625	0.08254551696777344	0		5.61073046875	0.1444115447998047	0		-0.2677113037109375	5.88810400390625	0		
0.04086085891723633	0.004509792804718017	0		0.499687255859375	-2.302559814453125	0		-0.9851300659179687	0.009262265205383301	0		-0.7761666870117188	-2.27616259765625	0		1.5307283935546876	-0.6283092041015625	0		3.30714501953125	-0.11498924255371094	0		4.5823857421875	0.07194155883789062	0		5.61283935546875	0.1348416748046875	0		-0.30447216796875	5.88090966796875	0		
0.041332736968994144	0.007100144863128662	0		0.47112948608398436	-2.297786865234375	0		-0.9846581420898437	0.011871943473815918	0		-0.7777443237304688	-2.27454345703125	0		1.5351485595703125	-0.631773193359375	0		3.308700439453125	-0.09946729278564453	0		4.57794091796875	0.08648287963867188	0		5.61333984375	0.1413269805908203	0		-0.30790933227539063	5.880533203125	0		
0.04803319549560547	-0.002314002990722656	0		0.4698629455566406	-2.29615576171875	0		-0.9878977661132813	0.011541572570800782	0		-0.7810236206054687	-2.27487744140625	0		1.5299639892578125	-0.62213427734375	0		3.308432373046875	-0.10389191436767578	0		4.5706591796875	0.07908609008789062	0		5.6001162109375	0.14294827270507812	0		-0.31104718017578126	5.88019091796875	0		
0.03517220687866211	0.0064384970664978025	0		0.46489260864257814	-2.298462646484375	0		-0.9948383178710938	0.008270886421203614	0		-0.7589610595703125	-2.272343994140625	0		1.5619727783203126	-0.6317032470703124	0		3.354502197265625	-0.10558201599121093	0		4.5726884765625	0.07067124938964844	0		5.597197265625	0.14254701232910155	0		-0.31387527465820314	5.8798828125	0		
0.028551166534423827	0.003185220956802368	0		0.4602456970214844	-2.3007353515625	0		-0.997439453125	0.00800546646118164	0		-0.8005868530273438	-2.271353515625	0		1.515350341796875	-0.633712158203125	0		3.288880859375	-0.10848986053466797	0		4.56110400390625	0.07238998413085937	0		5.60459814453125	0.14212225341796875	0		-0.29742071533203124	5.87548193359375	0		
0.03620062255859375	-0.006129329204559326	0		0.457927001953125	-2.30098876953125	0		-0.9997297973632813	0.007769917964935303	0		-0.7909453735351563	-2.277671142578125	0		1.5130521240234376	-0.6339785766601562	0		3.308535400390625	-0.11692440032958984	0		4.5628564453125	0.07806182861328125	0		5.6022958984375	0.13980563354492187	0		-0.2835793762207031	5.884130859375	0		
-0.024707250595092774	0.0070451731681823735	0		0.4309342346191406	-2.297045166015625	0		-1.066730712890625	0.006995631217956543	0		-0.7909518432617187	-2.27589453125	0		1.5250826416015626	-0.6293063354492188	0		3.320564697265625	-0.11327098846435547	0		4.57085595703125	0.07673097229003906	0		5.6052412109375	0.13049528503417968	0		-0.30449298095703126	5.8870419921875	0		
0.03952226638793945	-5.865539908409119E-4	0		0.48517684936523436	-2.299614501953125	0		-0.9994278564453125	0.010352903366088868	0		-0.7886611328125	-2.271105712890625	0		1.523354736328125	-0.6295111694335938	0		3.29094873046875	-0.09730519866943359	0		4.56318896484375	0.0845406494140625	0		5.59858056640625	0.13928726196289062	0		-0.3222159423828125	5.87896044921875	0		
-0.01796233558654785	-0.0023791639804840088	0		0.4546875305175781	-2.299591064453125	0		-1.0049202270507813	0.00722051477432251	0		-0.8061438598632813	-2.27015966796875	0		1.548830078125	-0.6368699951171874	0		3.287341796875	-0.11748323059082032	0		4.56563134765625	0.07131417846679687	0		5.58712255859375	0.14114466857910157	0		-0.3236436767578125	5.87879638671875	0		
0.023841955184936522	0.0051878089904785155	0		0.4783900146484375	-2.30490625	0		-1.00616845703125	0.007082004070281983	0		-0.8074071655273437	-2.27029931640625	0		1.5065919189453125	-0.6347509765625	0		3.269099853515625	-0.11653635406494141	0		4.55732470703125	0.062187210083007816	0		5.58587548828125	0.14096258544921875	0		-0.3058802795410156	5.8745263671875	0		
-0.04726092147827148	-0.002469671964645386	0		0.4503462219238281	-2.301854736328125	0		-1.0072192993164062	0.006961481094360351	0		-0.7985252685546875	-2.27848779296875	0		1.551482666015625	-0.6431943359375	0		3.301041015625	-0.11790316772460938	0		4.56032177734375	0.06900807189941406	0		5.59570458984375	0.12272985076904297	0		-0.3258692626953125	5.87852880859375	0		
0.027831031799316407	-0.007089670181274414	0		0.46041357421875	-2.308041748046875	0		-1.0040787353515626	0.009829344749450684	0		-0.7974039306640625	-2.276607666015625	0		1.5186875	-0.6300994262695313	0		3.2722685546875	-0.1018447494506836	0		4.5585439453125	0.08387965393066406	0		5.59393310546875	0.13859461975097656	0		-0.3126429748535156	5.88932568359375	0		
-0.054784881591796876	0.010362109184265137	0		0.4527365417480469	-2.298095458984375	0		-1.0048104858398437	0.009736867904663086	0		-0.7961347045898437	-2.27471484375	0		1.5589378662109374	-0.6324805908203125	0		3.303468505859375	-0.11217488861083984	0		4.5537666015625	0.07678512573242187	0		5.58321533203125	0.14053346252441407	0		-0.32840963745117185	5.879330078125	0		
0.03051439094543457	-0.004302496910095215	0		0.47709136962890625	-2.302353515625	0		-1.009435302734375	0.006681768894195556	0		-0.800779052734375	-2.27877099609375	0		1.50633740234375	-0.6312278442382813	0		3.306896484375	-0.10730811309814453	0		4.5531630859375	0.0766729736328125	0		5.582611328125	0.14041439819335938	0		-0.34305496215820314	5.8683388671875	0		
